<?xml version="1.0" encoding="UTF-8"?>
<svg width="28px" height="36px" viewBox="0 0 28 36" version="1.1" xmlns="http://www.w3.org/2000/svg" xmlns:xlink="http://www.w3.org/1999/xlink">
    <g id="Page-1" stroke="none" stroke-width="1" fill="none" fill-rule="evenodd">
        <g id="java-original-wordmark" fill-rule="nonzero">
            <path d="M8.95912195,26.8548209 C8.95912195,26.8548209 7.53196572,27.642735 9.97647053,27.9090838 C12.9376893,28.2298568 14.4513267,28.1836787 17.7141431,27.5986185 C17.7141431,27.5986185 18.5741742,28.1086393 19.7718729,28.5506298 C12.4553071,31.524583 3.21268869,28.3782865 8.95912195,26.8548209 Z M8.06432455,22.972973 C8.06432455,22.972973 6.46333686,24.0981523 8.90957999,24.3381136 C12.0733124,24.6477543 14.5708358,24.6733172 18.8957624,23.8833416 C18.8957624,23.8833416 19.4924388,24.4589188 20.4324324,24.7726826 C11.5878881,27.2275443 1.73642508,24.9660535 8.06432455,22.972973 L8.06432455,22.972973 Z" id="Shape" fill="#0074BD"></path>
            <path d="M16.02901,17.9470063 C17.8303299,20.0526856 15.5568741,21.9459459 15.5568741,21.9459459 C15.5568741,21.9459459 20.1276528,19.5498434 18.0286443,16.5482147 C16.0676314,13.7501909 14.564868,12.3606542 22.7027027,7.56756757 C22.7031367,7.56756757 9.92812916,10.8067351 16.02901,17.9470063 Z" id="Shape" fill="#EA2D2E"></path>
            <path d="M25.6099123,29.9664901 C25.6099123,29.9664901 26.6842145,30.8241628 24.426943,31.4872015 C20.1350351,32.7461196 6.56136843,33.1259766 2.79115086,31.5372502 C1.43678799,30.9661814 3.97809575,30.1739571 4.77719634,30.0075557 C5.61075235,29.8325991 6.08694386,29.8646816 6.08694386,29.8646816 C4.57974031,28.8367577 -3.65554571,31.8833137 1.90414478,32.7572415 C17.0662945,35.1369089 29.542247,31.6852576 25.6099123,29.9664901 L25.6099123,29.9664901 Z M9.72066498,18.7872294 C9.72066498,18.7872294 2.81677155,20.3755279 7.27609743,20.9530133 C9.15966014,21.1968404 12.9117665,21.140803 16.4094329,20.8567657 C19.2670237,20.6244883 22.1347744,20.1278509 22.1347744,20.1278509 C22.1347744,20.1278509 21.1280579,20.5462069 20.3987516,21.0278725 C13.3866328,22.8137994 -0.156554101,21.9817927 3.74265041,20.1560835 C7.03932688,18.6114172 9.72066498,18.7872294 9.72066498,18.7872294 Z M22.1060616,25.490337 C29.2334735,21.9047947 25.9376805,18.4587044 23.6375606,18.9228315 C23.0752306,19.0366175 22.8225575,19.1350039 22.8225575,19.1350039 C22.8225575,19.1350039 23.0323822,18.8167453 23.4312699,18.6802876 C27.9820351,17.1317714 31.4810267,23.2492661 21.9638226,25.672138 C21.9638226,25.672138 22.0729314,25.5763182 22.1060616,25.490337 Z" id="Shape" fill="#0074BD"></path>
            <path d="M17.901827,2.01939676e-15 C17.901827,2.01939676e-15 21.8663676,3.8712487 14.1409489,9.822985 C7.94588289,14.5984923 12.7281793,17.3207956 14.1382867,20.4324324 C10.5220578,17.2476061 7.86956493,14.4438848 9.6488383,11.8350469 C12.261841,8.0058064 19.5009545,6.14835191 17.901827,2.01939676e-15 Z" id="Shape" fill="#EA2D2E"></path>
            <path d="M10.6063848,35.712556 C17.3678514,36.1723068 27.7541523,35.4566745 28,32.0540541 C28,32.0540541 27.5275183,33.3436783 22.4110042,34.3672044 C16.6390418,35.5226185 9.51906552,35.3884085 5.2972973,34.6472344 C5.2972973,34.6472344 6.16191263,35.4088418 10.6063848,35.712556 L10.6063848,35.712556 Z" id="Shape" fill="#0074BD"></path>
        </g>
    </g>
</svg>
